<svg width="138" height="30" viewBox="0 0 138 30" fill="none" xmlns="http://www.w3.org/2000/svg">
<rect width="30" height="30" rx="5" fill="#10AC84"/>
<path d="M19.5 7.5H10.5C9.67154 7.5 8.99997 8.17157 8.99997 9V21C8.99997 21.8284 9.67154 22.5 10.5 22.5H19.5C20.3284 22.5 21 21.8284 21 21V9C21 8.17157 20.3284 7.5 19.5 7.5Z" stroke="white" stroke-linecap="round" stroke-linejoin="round"/>
<path d="M15 19.5C16.6568 19.5 18 18.1569 18 16.5C18 14.8431 16.6568 13.5 15 13.5C13.3431 13.5 12 14.8431 12 16.5C12 18.1569 13.3431 19.5 15 19.5Z" stroke="white" stroke-linecap="round" stroke-linejoin="round"/>
<path d="M15 10.5H15.0091" stroke="white" stroke-linecap="round" stroke-linejoin="round"/>
<path d="M59.971 8.204L53.547 24H51.446L45.022 8.204H46.892C47.0973 8.204 47.2623 8.25533 47.387 8.358C47.519 8.46067 47.618 8.59267 47.684 8.754L51.952 19.49C52.0547 19.754 52.1537 20.0437 52.249 20.359C52.3517 20.6743 52.4433 21.0043 52.524 21.349C52.5973 21.0043 52.678 20.6743 52.766 20.359C52.854 20.0437 52.9493 19.754 53.052 19.49L57.309 8.754C57.3603 8.60733 57.452 8.479 57.584 8.369C57.7233 8.259 57.892 8.204 58.09 8.204H59.971ZM82.7884 16.102C82.7884 17.2827 82.5978 18.368 82.2164 19.358C81.8424 20.3407 81.3108 21.1913 80.6214 21.91C79.9321 22.6213 79.1071 23.175 78.1464 23.571C77.1858 23.967 76.1188 24.165 74.9454 24.165C73.7794 24.165 72.7124 23.967 71.7444 23.571C70.7838 23.175 69.9588 22.6213 69.2694 21.91C68.5874 21.1913 68.0558 20.3407 67.6744 19.358C67.2931 18.368 67.1024 17.2827 67.1024 16.102C67.1024 14.9287 67.2931 13.847 67.6744 12.857C68.0558 11.867 68.5874 11.0163 69.2694 10.305C69.9588 9.58633 70.7838 9.029 71.7444 8.633C72.7124 8.22967 73.7794 8.028 74.9454 8.028C76.1188 8.028 77.1858 8.22967 78.1464 8.633C79.1071 9.029 79.9321 9.58633 80.6214 10.305C81.3108 11.0163 81.8424 11.867 82.2164 12.857C82.5978 13.847 82.7884 14.9287 82.7884 16.102ZM80.3904 16.102C80.3904 15.1633 80.2621 14.32 80.0054 13.572C79.7488 12.824 79.3821 12.1897 78.9054 11.669C78.4361 11.1483 77.8641 10.7487 77.1894 10.47C76.5221 10.1913 75.7741 10.052 74.9454 10.052C74.1168 10.052 73.3651 10.1913 72.6904 10.47C72.0231 10.7487 71.4511 11.1483 70.9744 11.669C70.4978 12.1897 70.1311 12.824 69.8744 13.572C69.6178 14.32 69.4894 15.1633 69.4894 16.102C69.4894 17.048 69.6178 17.895 69.8744 18.643C70.1311 19.3837 70.4978 20.0143 70.9744 20.535C71.4511 21.0557 72.0231 21.4553 72.6904 21.734C73.3651 22.0053 74.1168 22.141 74.9454 22.141C75.7741 22.141 76.5221 22.0053 77.1894 21.734C77.8641 21.4553 78.4361 21.0557 78.9054 20.535C79.3821 20.0143 79.7488 19.3837 80.0054 18.643C80.2621 17.895 80.3904 17.048 80.3904 16.102ZM94.6846 24H92.3306V8.204H94.6846V24ZM116.216 20.612C116.348 20.612 116.461 20.6633 116.557 20.766L117.481 21.778C116.835 22.5407 116.047 23.131 115.116 23.549C114.192 23.967 113.077 24.176 111.772 24.176C110.628 24.176 109.59 23.978 108.659 23.582C107.735 23.186 106.943 22.6323 106.283 21.921C105.63 21.2097 105.124 20.359 104.765 19.369C104.405 18.379 104.226 17.29 104.226 16.102C104.226 14.914 104.413 13.825 104.787 12.835C105.168 11.845 105.7 10.9943 106.382 10.283C107.064 9.57167 107.878 9.018 108.824 8.622C109.777 8.226 110.829 8.028 111.981 8.028C113.103 8.028 114.1 8.21133 114.973 8.578C115.845 8.94467 116.604 9.43233 117.25 10.041L116.48 11.13C116.428 11.2107 116.362 11.2767 116.282 11.328C116.208 11.3793 116.109 11.405 115.985 11.405C115.845 11.405 115.68 11.3353 115.49 11.196C115.306 11.0567 115.061 10.9027 114.753 10.734C114.452 10.558 114.078 10.4003 113.631 10.261C113.183 10.1217 112.626 10.052 111.959 10.052C111.174 10.052 110.455 10.1913 109.803 10.47C109.15 10.7413 108.585 11.1373 108.109 11.658C107.639 12.1713 107.273 12.8057 107.009 13.561C106.752 14.309 106.624 15.156 106.624 16.102C106.624 17.0627 106.759 17.917 107.031 18.665C107.302 19.413 107.676 20.0473 108.153 20.568C108.629 21.0887 109.19 21.4847 109.836 21.756C110.481 22.0273 111.178 22.163 111.926 22.163C112.38 22.163 112.787 22.1373 113.147 22.086C113.513 22.0273 113.847 21.943 114.148 21.833C114.456 21.723 114.745 21.5837 115.017 21.415C115.288 21.239 115.556 21.03 115.82 20.788C115.878 20.7367 115.941 20.6963 116.007 20.667C116.073 20.6303 116.142 20.612 116.216 20.612ZM136.236 22.097L136.225 24H126.435V8.204H136.225V10.107H128.789V15.112H134.773V16.949H128.789V22.097H136.236Z" fill="white"/>
</svg>
